<svg xmlns="http://www.w3.org/2000/svg" viewBox="0 0 674.11 478.65">
  <defs>
    <style>
      .cls-1 {
        fill: #d65852;
      }

      .cls-2, .cls-3 {
        fill: none;
        stroke-miterlimit: 10;
      }

      .cls-2 {
        stroke: #303850;
        stroke-linecap: round;
        stroke-width: 2px;
      }

      .cls-3 {
        stroke: #efeff0;
        stroke-width: 5px;
      }

      .cls-4, .cls-6 {
        fill: #fff;
      }

      .cls-5 {
        fill: #efeff0;
      }

      .cls-6 {
        font-size: 122.38px;
        font-family: Spantaran;
      }
    </style>
  </defs>
  <g id="Layer_2" data-name="Layer 2">
    <g id="Layer_1-2" data-name="Layer 1">
      <g>
        <g>
          <g>
            <path class="cls-1" d="M340.5,243.17a89.92,89.92,0,0,0-23.33,22.09c-1.23,15.89,9,38.23,12.6,70.6-8.1,25.65-32,48.34-35.1,55.12-7.33-18.34-28.42-51-38.3-45.39.07-7.92-1.91-38.84-22-64.8-22.93-29.64-58-59.85-83.41-45.79-25.17,13.93-20.11,63.77-19.5,69,2.52,21.4,13.55,52.76,32.33,56.78,2.34.51,4.5,1,4.5,1a15.08,15.08,0,0,0,3.1-.1c6.16-.8,82.48,120.92,130.21,116.89a27.93,27.93,0,0,0,8.34-2.09C335.88,431.87,380.5,333.72,391,313.7c3.71-11.18,7.27-38.34,11.4-65a11.54,11.54,0,0,0-.39-4.85,7.28,7.28,0,0,0-2-2.74c-15.77-7.47-16.18-10.73-21.37-13.67-9.56-1.83-22.93-1.46-31.49,1.24a8.68,8.68,0,0,0-5.9,6.78A55.3,55.3,0,0,0,340.5,243.17Z"/>
            <path class="cls-1" d="M350.49,406.36s53.71,61,62,65.59a7.56,7.56,0,0,0,8.06-.5c10.42-7.5,31-34.41,64.24-81.14,9.72-1.84,40.26-41.76,49.65-64.71,15.13-37,10.51-88-13.7-103.3-11.65-5-24.5-.56-34.92,3.87a33.44,33.44,0,0,0-9.51,6c-14.68,13.46-31.95,46.7-34.1,86.22A62.72,62.72,0,0,0,409,359q-5.16-5.06-10.42-10.54-7.05-7.38-13.33-14.55"/>
          </g>
          <g>
            <path class="cls-2" d="M429.05,381.64c-6.39-8.34-13.45-18.29-21.17-25.16"/>
            <g>
              <path class="cls-2" d="M328.62,337.71c6-22.39,14.9-30.41,22.47-33.26,5.75-2.17,13.66-4.81,15.63-7.31,2.62-3.32.41-10.38-1.83-14.84,0-1.34,1.46-3.61,1.28-8.09-.17-4.69-2.38-7.1-2.12-8.1,1.79-4.78,2.34-8.45.23-13.1,2.55-4.67,2.14-10-1.37-12.23-1.79-.44-3.9-1.73-11.84-.61a103.13,103.13,0,0,0-11.6,2.42"/>
              <path class="cls-2" d="M338.15,259.64c9-6.12,13.73-8.4,26.16-6.88"/>
              <path class="cls-2" d="M339.55,275.85c6-7.15,14.91-9.49,24.53-10"/>
              <path class="cls-2" d="M338.84,292.89a34.23,34.23,0,0,1,15.92-9.74,32.53,32.53,0,0,1,10.15-1.1"/>
            </g>
          </g>
        </g>
        <g>
          <path class="cls-3" d="M544,207.41a130.1,130.1,0,0,1-.51-21.63,3.61,3.61,0,0,1,3-3.35,87.3,87.3,0,0,1,16.3-.76,3.89,3.89,0,0,1,3.23,2.29c6.72,14.9,15.22,46.38,15.29,106.67-2.08,56.47-9.65,92.11-13.29,99.65a2.34,2.34,0,0,1-2.17,1.33c-7.19-.23-14.83-2.62-21.54-5a1.9,1.9,0,0,1-1.23-1.65c-.75-11.79.21-21.87,2.11-42.62"/>
          <path class="cls-3" d="M573.09,178a188.37,188.37,0,0,1-.68-31.08,5.17,5.17,0,0,1,4.32-4.82A122.21,122.21,0,0,1,599.8,141a5.52,5.52,0,0,1,4.57,3.28c9.5,21.4,21.49,66.63,21.51,153.25-3,81.13-13.77,132.35-18.94,143.19a3.32,3.32,0,0,1-3.07,1.91c-10.18-.31-21-3.75-30.48-7.21a2.87,2.87,0,0,1-1.75-2.37c-1.4-8.94-.8-23.72,1.78-36.14"/>
          <path class="cls-3" d="M130,208.59a128.87,128.87,0,0,0,.5-21.63,3.6,3.6,0,0,0-3-3.35,87.15,87.15,0,0,0-16.29-.76,3.91,3.91,0,0,0-3.23,2.29c-6.72,14.9-15.22,46.38-15.29,106.67,2.08,56.47,9.65,92.11,13.29,99.65a2.34,2.34,0,0,0,2.17,1.33c7.19-.22,14.82-2.62,21.53-5a1.87,1.87,0,0,0,1.24-1.65c.75-11.79-.22-21.87-2.11-42.62"/>
          <path class="cls-3" d="M100.91,179.17a188.36,188.36,0,0,0,.68-31.08,5.15,5.15,0,0,0-4.32-4.81,121.39,121.39,0,0,0-23.07-1.12,5.52,5.52,0,0,0-4.57,3.28c-9.5,21.41-21.49,66.63-21.51,153.25,3,81.13,13.77,132.36,18.94,143.19a3.31,3.31,0,0,0,3.07,1.91c10.17-.31,21-3.75,30.48-7.21a2.87,2.87,0,0,0,1.75-2.37c1.4-8.94.8-23.72-1.79-36.14"/>
          <g>
            <g>
              <rect class="cls-4" x="637.61" y="273.74" width="34" height="20" rx="2.5"/>
              <path class="cls-5" d="M669.11,276.24v15h-29v-15h29m0-5h-29a5,5,0,0,0-5,5v15a5,5,0,0,0,5,5h29a5,5,0,0,0,5-5v-15a5,5,0,0,0-5-5Z"/>
            </g>
            <g>
              <rect class="cls-4" x="2.5" y="275.74" width="34" height="20" rx="2.5"/>
              <path class="cls-5" d="M34,278.24v15H5v-15H34m0-5H5a5,5,0,0,0-5,5v15a5,5,0,0,0,5,5H34a5,5,0,0,0,5-5v-15a5,5,0,0,0-5-5Z"/>
            </g>
          </g>
        </g>
      </g>
      <text class="cls-6" transform="translate(93.3 104.04)">FITNESS<tspan x="134.19" y="101">BUD</tspan></text>
    </g>
  </g>
</svg>
